<svg width="140" height="24" viewBox="0 0 140 24" fill="none" xmlns="http://www.w3.org/2000/svg">
<path d="M28.8203 17.1573C28.3798 18.9442 26.7769 20.2 24.9365 20.2L11.1057 20.2C8.50883 20.2 6.60042 17.7641 7.2219 15.2427L10.1797 3.24273C10.6202 1.4558 12.2231 0.200012 14.0635 0.200013L31.7236 0.200014C32.3728 0.200014 32.8499 0.808998 32.6945 1.43934L28.8203 17.1573Z" fill="url(#paint0_radial_6400_20751)"/>
<path d="M3.80473 7.76408C4.4654 5.08369 6.86976 3.20001 9.63037 3.20001L19.3415 3.20001C23.2367 3.20001 26.0994 6.85391 25.1672 10.6359L23.1953 18.6359C22.5346 21.3163 20.1302 23.2 17.3696 23.2L1.27641 23.2C0.627208 23.2 0.150105 22.591 0.305474 21.9607L3.80473 7.76408Z" fill="url(#paint1_radial_6400_20751)" style="mix-blend-mode:multiply"/>
<path d="M44.9317 23.0034C43.7161 23.0034 42.47 22.9539 41.1936 22.855C39.9172 22.756 38.7623 22.5977 37.729 22.3801L42.5916 2.49327C43.7465 2.2756 44.952 2.1272 46.2082 2.04804C47.4846 1.96889 48.6496 1.92932 49.7032 1.92932C50.9188 1.92932 51.9623 2.05794 52.8335 2.31518C53.725 2.55263 54.4442 2.87913 54.9913 3.29468C55.5586 3.71022 55.9739 4.20492 56.2373 4.77877C56.521 5.33283 56.6628 5.92647 56.6628 6.55968C56.6628 6.99501 56.6121 7.45013 56.5108 7.92504C56.4298 8.39995 56.2474 8.87486 55.9638 9.34977C55.7004 9.80489 55.3256 10.2402 54.8393 10.6558C54.3733 11.0713 53.7553 11.4473 52.9854 11.7837C53.8972 12.1794 54.5658 12.7236 54.9913 13.4162C55.4167 14.089 55.6295 14.8409 55.6295 15.672C55.6295 16.6218 55.437 17.5419 55.052 18.4324C54.6671 19.3031 54.0491 20.0847 53.1982 20.7773C52.3472 21.45 51.243 21.9942 49.8855 22.4098C48.528 22.8055 46.8768 23.0034 44.9317 23.0034ZM44.5063 13.7427L43.1994 19.0854C43.5236 19.1448 43.9288 19.1942 44.4151 19.2338C44.9216 19.2536 45.3876 19.2635 45.8131 19.2635C46.4209 19.2635 47.0186 19.2239 47.6062 19.1448C48.214 19.0458 48.7509 18.8776 49.2169 18.6402C49.7032 18.4027 50.0983 18.0762 50.4022 17.6607C50.7061 17.2451 50.858 16.7109 50.858 16.0579C50.858 15.7808 50.7973 15.5038 50.6757 15.2268C50.5744 14.9497 50.4022 14.7024 50.159 14.4847C49.9159 14.267 49.5917 14.089 49.1865 13.9504C48.8016 13.8119 48.3356 13.7427 47.7885 13.7427H44.5063ZM45.3876 10.2699H48.366C49.5816 10.2699 50.4832 10.0127 51.0708 9.49817C51.6786 8.98369 51.9825 8.37027 51.9825 7.6579C51.9825 7.28193 51.8913 6.96533 51.709 6.70809C51.5469 6.43106 51.324 6.21339 51.0404 6.05509C50.7567 5.89678 50.4326 5.78795 50.0679 5.72859C49.7032 5.64944 49.3283 5.60986 48.9434 5.60986C48.5179 5.60986 48.062 5.62965 47.5758 5.66922C47.0895 5.68901 46.7248 5.71869 46.4817 5.75827L45.3876 10.2699ZM62.0786 22.7363H57.5807L61.3796 7.12363H65.9079L62.0786 22.7363ZM64.2668 5.224C63.6387 5.224 63.0714 5.04591 62.5649 4.68972C62.0583 4.31375 61.8051 3.7498 61.8051 2.99786C61.8051 2.58232 61.8861 2.19645 62.0482 1.84027C62.2306 1.4643 62.4636 1.1477 62.7472 0.890453C63.0309 0.613423 63.355 0.395757 63.7197 0.237455C64.1047 0.0791516 64.5099 0 64.9354 0C65.5635 0 66.1308 0.187985 66.6373 0.563954C67.1438 0.920136 67.3971 1.4742 67.3971 2.22613C67.3971 2.64168 67.3059 3.03744 67.1236 3.41341C66.9615 3.76959 66.7386 4.08619 66.455 4.36322C66.1713 4.62047 65.837 4.82824 65.452 4.98654C65.0873 5.14484 64.6923 5.224 64.2668 5.224ZM70.5896 2.79376H75.1008L74.0893 7.12363H79.1343L78.2226 10.7448H73.208L71.8708 16.2063C71.7492 16.6614 71.6682 17.0868 71.6276 17.4826C71.6074 17.8783 71.658 18.2246 71.7796 18.5214C71.9214 18.7985 72.1544 19.0161 72.4786 19.1744C72.8028 19.3327 73.2485 19.4119 73.8158 19.4119C74.3021 19.4119 74.7681 19.3723 75.2138 19.2932C75.6798 19.1942 76.1458 19.0656 76.6118 18.9073L76.9461 22.291C76.3383 22.5087 75.6798 22.6967 74.9707 22.855C74.2616 23.0133 73.4207 23.0924 72.4482 23.0924C71.0502 23.0924 69.9663 22.8946 69.1963 22.4988C68.4264 22.0833 67.8794 21.5292 67.5552 20.8366C67.231 20.1243 67.0892 19.313 67.1297 18.4027C67.1703 17.4925 67.3121 16.5328 67.5552 15.5236L70.5896 2.79376ZM95.5765 7.12363L93.4187 15.9985C93.135 17.1264 93.054 18.2642 93.1755 19.4119C93.2971 20.5398 93.5301 21.549 93.8745 22.4394L89.8325 23.0034C89.6096 22.5681 89.3969 22.0833 89.1943 21.549C88.627 21.9843 87.9888 22.3504 87.2796 22.6472C86.5705 22.944 85.7803 23.0924 84.9091 23.0924C83.7137 23.0924 82.7412 22.8847 81.9916 22.4691C81.2622 22.0338 80.7151 21.4698 80.3504 20.7773C79.9857 20.0649 79.7831 19.2536 79.7426 18.3433C79.7223 17.4331 79.8338 16.5031 80.0769 15.5533L82.1435 7.12363H86.6718L84.6356 15.4939C84.5343 15.9292 84.4431 16.3745 84.3621 16.8296C84.3013 17.2847 84.3013 17.7101 84.3621 18.1059C84.4229 18.4819 84.5748 18.7985 84.8179 19.0557C85.0813 19.2932 85.4865 19.4119 86.0336 19.4119C86.4996 19.4119 86.9251 19.3327 87.31 19.1744C87.7152 18.9963 88.1407 18.6995 88.5865 18.284C88.627 17.7893 88.6878 17.2748 88.7688 16.7405C88.8701 16.1865 88.9714 15.6819 89.0727 15.2268L91.0482 7.12363H95.5765ZM100.167 7.83599C100.512 7.73705 100.886 7.62822 101.292 7.50949C101.717 7.37098 102.183 7.25225 102.69 7.15331C103.216 7.03459 103.794 6.94554 104.422 6.88618C105.07 6.80702 105.8 6.76745 106.61 6.76745C109.001 6.76745 110.642 7.44024 111.534 8.78581C112.425 10.1314 112.577 11.9717 111.989 14.3066L109.783 23.2H105.255L107.4 14.4847C107.522 13.9702 107.613 13.4755 107.674 13.0006C107.755 12.5059 107.755 12.0805 107.674 11.7243C107.593 11.3483 107.4 11.0515 107.096 10.8339C106.813 10.5964 106.367 10.4777 105.759 10.4777C105.172 10.4777 104.574 10.537 103.966 10.6558L100.878 23.2H96.35L100.167 7.83599ZM118.076 23.2H113.578L117.532 7.12363H122.061L118.076 23.2ZM120.419 5.224C119.791 5.224 119.224 5.04591 118.718 4.68972C118.211 4.31375 117.958 3.7498 117.958 2.99786C117.958 2.58232 118.039 2.19645 118.201 1.84027C118.383 1.4643 118.616 1.1477 118.9 0.890453C119.184 0.613423 119.508 0.395757 119.872 0.237455C120.257 0.0791516 120.663 0 121.088 0C121.716 0 122.283 0.187985 122.79 0.563954C123.296 0.920136 123.55 1.4742 123.55 2.22613C123.55 2.64168 123.459 3.03744 123.276 3.41341C123.114 3.76959 122.891 4.08619 122.608 4.36322C122.324 4.62047 121.99 4.82824 121.605 4.98654C121.24 5.14484 120.845 5.224 120.419 5.224ZM128.753 7.12363L131.063 11.9914C131.751 11.1604 132.4 10.3491 133.008 9.55754C133.636 8.76602 134.233 7.95472 134.801 7.12363H139.329C138.478 8.3109 137.546 9.54764 136.533 10.8339C135.52 12.1003 134.345 13.4261 133.008 14.8112C133.818 16.2953 134.507 17.6706 135.074 18.937C135.642 20.1836 136.358 21.8087 137.027 23.2H132.559C132.084 22.2724 131.397 20.8762 131.032 20.0649C130.667 19.2536 130.313 18.5017 129.968 17.8091L125.191 23.2H120.45L128.084 14.7815L124.164 7.12363H128.753Z" fill="white"/>
<defs>
<radialGradient id="paint0_radial_6400_20751" cx="0" cy="0" r="1" gradientUnits="userSpaceOnUse" gradientTransform="translate(8.7 19.0636) rotate(-36.9962) scale(31.3473 37.7841)">
<stop stop-color="#D591FE"/>
<stop offset="0.85857" stop-color="#91FEF1"/>
</radialGradient>
<radialGradient id="paint1_radial_6400_20751" cx="0" cy="0" r="1" gradientUnits="userSpaceOnUse" gradientTransform="translate(23.9443 4.56365) rotate(142.106) scale(30.342 28.1077)">
<stop offset="0.53824" stop-color="#D5ED86" stop-opacity="0.9"/>
<stop offset="1" stop-color="#19FCA2"/>
</radialGradient>
</defs>
</svg>
